<svg xmlns="http://www.w3.org/2000/svg" viewBox="0 0 600 300">
  <rect width="600" height="300" fill="#2D2D2D"/>
  <!-- Source document -->
  <rect x="80" y="40" width="160" height="200" rx="6" fill="none" stroke="#E8A87C" stroke-width="3"/>
  <line x1="105" y1="75" x2="210" y2="75" stroke="#E8A87C" stroke-width="3" opacity="0.5"/>
  <line x1="105" y1="100" x2="200" y2="100" stroke="#E8A87C" stroke-width="2" opacity="0.3"/>
  <line x1="105" y1="120" x2="210" y2="120" stroke="#E8A87C" stroke-width="2" opacity="0.3"/>
  <rect x="105" y="140" width="110" height="35" rx="3" fill="#C2571A" opacity="0.2"/>
  <line x1="115" y1="155" x2="190" y2="155" stroke="#C2571A" stroke-width="2" opacity="0.5"/>
  <line x1="105" y1="195" x2="195" y2="195" stroke="#E8A87C" stroke-width="2" opacity="0.3"/>
  <!-- Arrow -->
  <line x1="270" y1="140" x2="340" y2="140" stroke="#C2571A" stroke-width="4"/>
  <polyline points="328,130 345,140 328,150" fill="none" stroke="#C2571A" stroke-width="4" stroke-linecap="round"/>
  <!-- Gear/engine -->
  <circle cx="305" cy="140" r="18" fill="none" stroke="#C2571A" stroke-width="3"/>
  <circle cx="305" cy="140" r="7" fill="#C2571A"/>
  <!-- PDF document -->
  <rect x="370" y="40" width="160" height="200" rx="6" fill="none" stroke="#C2571A" stroke-width="3"/>
  <!-- PDF page corner fold -->
  <path d="M490 40 L490 70 L530 70" fill="none" stroke="#C2571A" stroke-width="2"/>
  <path d="M490 40 L530 70" fill="none" stroke="#C2571A" stroke-width="2" opacity="0.3"/>
  <!-- Clean rendered lines -->
  <line x1="395" y1="90" x2="505" y2="90" stroke="#C2571A" stroke-width="3" opacity="0.6"/>
  <line x1="395" y1="115" x2="490" y2="115" stroke="#C2571A" stroke-width="2" opacity="0.3"/>
  <line x1="395" y1="135" x2="500" y2="135" stroke="#C2571A" stroke-width="2" opacity="0.3"/>
  <line x1="395" y1="155" x2="480" y2="155" stroke="#C2571A" stroke-width="2" opacity="0.3"/>
  <line x1="395" y1="175" x2="495" y2="175" stroke="#C2571A" stroke-width="2" opacity="0.3"/>
  <line x1="395" y1="195" x2="470" y2="195" stroke="#C2571A" stroke-width="2" opacity="0.3"/>
</svg>
