<svg xmlns="http://www.w3.org/2000/svg" viewBox="0 0 600 300">
  <rect width="600" height="300" fill="#2D2D2D"/>
  <!-- Left doc -->
  <rect x="60" y="40" width="180" height="220" rx="6" fill="none" stroke="#E8A87C" stroke-width="3"/>
  <line x1="85" y1="80" x2="210" y2="80" stroke="#E8A87C" stroke-width="3" opacity="0.5"/>
  <line x1="85" y1="105" x2="195" y2="105" stroke="#E8A87C" stroke-width="2" opacity="0.3"/>
  <line x1="85" y1="125" x2="205" y2="125" stroke="#E8A87C" stroke-width="2" opacity="0.3"/>
  <rect x="85" y="145" width="130" height="40" rx="3" fill="#C2571A" opacity="0.2"/>
  <line x1="95" y1="163" x2="180" y2="163" stroke="#C2571A" stroke-width="2" opacity="0.5"/>
  <line x1="85" y1="205" x2="200" y2="205" stroke="#E8A87C" stroke-width="2" opacity="0.3"/>
  <line x1="85" y1="225" x2="185" y2="225" stroke="#E8A87C" stroke-width="2" opacity="0.3"/>
  <!-- Bidirectional arrows -->
  <line x1="265" y1="150" x2="335" y2="150" stroke="#C2571A" stroke-width="4"/>
  <polyline points="275,140 260,150 275,160" fill="none" stroke="#C2571A" stroke-width="4" stroke-linecap="round"/>
  <polyline points="325,140 340,150 325,160" fill="none" stroke="#C2571A" stroke-width="4" stroke-linecap="round"/>
  <!-- Right doc -->
  <rect x="360" y="40" width="180" height="220" rx="6" fill="none" stroke="#E8A87C" stroke-width="3"/>
  <!-- Notebook cells -->
  <rect x="380" y="65" width="140" height="45" rx="4" fill="#C2571A" opacity="0.15" stroke="#E8A87C" stroke-width="1" opacity="0.3"/>
  <line x1="392" y1="85" x2="490" y2="85" stroke="#E8A87C" stroke-width="2" opacity="0.3"/>
  <rect x="380" y="120" width="140" height="45" rx="4" fill="#C2571A" opacity="0.25" stroke="#C2571A" stroke-width="1" opacity="0.4"/>
  <line x1="392" y1="140" x2="500" y2="140" stroke="#C2571A" stroke-width="2" opacity="0.4"/>
  <rect x="380" y="175" width="140" height="45" rx="4" fill="#C2571A" opacity="0.15" stroke="#E8A87C" stroke-width="1" opacity="0.3"/>
  <line x1="392" y1="195" x2="480" y2="195" stroke="#E8A87C" stroke-width="2" opacity="0.3"/>
</svg>
